<?xml version="1.0" standalone="no"?>
<!DOCTYPE svg PUBLIC "-//W3C//DTD SVG 20010904//EN"
 "http://www.w3.org/TR/2001/REC-SVG-20010904/DTD/svg10.dtd">
<svg version="1.0" xmlns="http://www.w3.org/2000/svg"
 width="1024.000000pt" height="1024.000000pt" viewBox="0 0 1024.000000 1024.000000"
 preserveAspectRatio="xMidYMid meet">

<g transform="translate(0.000000,1024.000000) scale(0.100000,-0.100000)"
fill="#2A9D8F" stroke="none">
<path d="M4950 8169 c-848 -78 -1572 -657 -1826 -1459 -65 -208 -88 -372 -88
-625 2 -343 61 -591 219 -910 178 -360 421 -641 730 -845 283 -186 739 -347
993 -351 32 0 77 -4 101 -7 l43 -7 -177 -195 c-224 -246 -285 -315 -285 -324
0 -4 83 -6 185 -3 l185 4 0 -199 0 -198 -150 0 -151 0 2 -325 1 -325 394 0
394 0 0 135 c0 74 3 135 7 135 3 0 42 -7 85 -16 126 -25 382 -16 512 20 135
37 243 85 356 161 109 73 215 177 397 390 149 173 242 255 362 318 154 80 203
92 384 92 l157 0 0 92 0 92 -57 7 c-90 11 -289 -2 -368 -25 -144 -41 -278
-115 -406 -224 -37 -31 -134 -134 -217 -229 -223 -258 -315 -340 -468 -417
-211 -106 -486 -131 -692 -65 l-52 17 0 85 0 84 -149 -3 -150 -4 -5 204 -5
204 195 -5 c167 -4 221 0 186 14 -9 3 -170 177 -355 382 -121 134 -121 134
-12 135 225 4 542 89 800 216 361 177 652 443 869 794 283 458 388 1012 285
1515 -44 215 -154 494 -269 681 -54 89 -171 242 -252 330 -216 235 -556 448
-887 554 -299 96 -539 125 -821 100z m39 -495 c28 -66 51 -123 51 -126 0 -3
-24 -11 -52 -18 -127 -30 -280 -132 -365 -244 -57 -75 -115 -196 -143 -298
-78 -286 -91 -842 -30 -1281 63 -450 208 -947 371 -1270 39 -76 20 -67 -87 46
-339 352 -538 1024 -537 1812 0 533 71 886 228 1145 74 121 164 209 285 278
73 41 212 94 221 84 4 -4 29 -61 58 -128z m655 -35 c129 -120 238 -302 305
-511 74 -233 105 -468 105 -803 0 -802 -201 -1495 -533 -1838 -56 -59 -150
-138 -120 -102 72 86 223 497 308 840 105 420 156 930 131 1300 -31 472 -157
915 -338 1189 l-50 76 58 -41 c31 -22 92 -72 134 -110z m-1671 -268 c21 -20
50 -61 65 -91 23 -46 27 -68 26 -135 0 -68 -5 -90 -32 -146 -54 -113 -146
-191 -266 -225 -58 -16 -65 -21 -71 -49 -13 -65 -17 -537 -6 -648 57 -536 286
-1136 588 -1538 29 -38 48 -69 43 -69 -17 0 -205 157 -271 226 -239 251 -384
519 -489 904 -125 458 -131 1057 -15 1366 56 148 148 297 258 415 l62 67 35
-21 c19 -11 52 -36 73 -56z m2790 -768 c35 -333 2 -726 -88 -1038 -103 -358
-221 -582 -435 -824 -62 -70 -210 -201 -285 -251 l-50 -34 44 49 c122 140 319
503 420 776 91 245 155 501 183 729 14 115 17 462 6 551 l-8 56 58 6 c31 4 75
13 97 21 22 8 43 15 46 15 3 1 9 -25 12 -56z"/>
</g>
</svg>
